<svg xmlns="http://www.w3.org/2000/svg" viewBox="0 0 512 512">
  <rect width="512" height="512" fill="#FFFFFF"/>
  <rect x="96" y="96" width="320" height="320" rx="72" fill="#FFFC00"/>
  <path d="M256 150 C 208 150 186 186 186 228 L186 278 C 172 285 156 290 156 300 C 156 309 176 311 188 316 C 183 325 170 331 174 339 C 178 347 196 342 208 347 C 216 362 234 372 256 372 C 278 372 296 362 304 347 C 316 342 334 347 338 339 C 342 331 329 325 324 316 C 336 311 356 309 356 300 C 356 290 340 285 326 278 L326 228 C 326 186 304 150 256 150 Z" fill="#FFFFFF" stroke="#141416" stroke-width="8" stroke-linejoin="round"/>
</svg>
